<svg width="25" height="25" viewBox="0 0 25 25" fill="none" xmlns="http://www.w3.org/2000/svg">
<g id="akar-icons:vk-fill" clip-path="url(#clip0_5698_5045)">
<path id="Vector" fill-rule="evenodd" clip-rule="evenodd" d="M24.4271 6.19587C24.6 5.62712 24.4271 5.20837 23.599 5.20837H20.8646C20.1688 5.20837 19.8479 5.56983 19.674 5.96879C19.674 5.96879 18.2833 9.29796 16.3135 11.4605C15.676 12.0875 15.3865 12.2865 15.0385 12.2865C14.8646 12.2865 14.6031 12.0875 14.6031 11.5177V6.19587C14.6031 5.51254 14.4115 5.20837 13.8323 5.20837H9.53229C9.09792 5.20837 8.83646 5.52504 8.83646 5.82608C8.83646 6.47296 9.82187 6.62296 9.92292 8.44379V12.4C9.92292 13.2677 9.76354 13.425 9.41562 13.425C8.48854 13.425 6.23333 10.0802 4.89479 6.25317C4.63542 5.50837 4.37292 5.20837 3.67396 5.20837H0.9375C0.15625 5.20837 0 5.56983 0 5.96879C0 6.67921 0.927083 10.2084 4.31771 14.8761C6.57812 18.0636 9.76042 19.7917 12.6594 19.7917C14.3979 19.7917 14.6125 19.4084 14.6125 18.7469V16.3375C14.6125 15.5698 14.7771 15.4167 15.3281 15.4167C15.7344 15.4167 16.4292 15.6167 18.0521 17.1532C19.9062 18.975 20.2115 19.7917 21.2552 19.7917H23.9896C24.7708 19.7917 25.1625 19.4084 24.9375 18.65C24.6896 17.8959 23.8042 16.8011 22.6302 15.5021C21.9927 14.7625 21.0365 13.9657 20.7458 13.5667C20.3406 13.0552 20.4562 12.8271 20.7458 12.3719C20.7458 12.3719 24.0792 7.7615 24.426 6.19587H24.4271Z" fill="#FF5000"/>
</g>
<defs>
<clipPath id="clip0_5698_5045">
<rect width="25" height="25" fill="white"/>
</clipPath>
</defs>
</svg>
